<?xml version="1.0" standalone="no"?>
<!DOCTYPE svg PUBLIC "-//W3C//DTD SVG 20010904//EN"
 "http://www.w3.org/TR/2001/REC-SVG-20010904/DTD/svg10.dtd">
<svg version="1.0" xmlns="http://www.w3.org/2000/svg"
 width="500.000000pt" height="500.000000pt" viewBox="0 0 500.000000 500.000000"
 preserveAspectRatio="xMidYMid meet">

<g transform="translate(0.000000,500.000000) scale(0.100000,-0.100000)"
fill="#000000" stroke="none">
<path d="M1826 3124 c-21 -8 -45 -19 -51 -24 -9 -8 -14 -7 -17 1 -5 15 -49 -7
-151 -77 -43 -30 -80 -54 -82 -54 -2 0 -5 15 -7 32 -3 30 -7 33 -47 40 -40 7
-47 5 -74 -21 -18 -18 -26 -34 -22 -42 5 -8 4 -10 -3 -5 -9 5 -12 -18 -13 -86
-2 -214 1 -405 6 -440 7 -41 12 -43 116 -54 l66 -6 12 43 c7 24 18 73 25 109
6 36 16 63 21 60 6 -3 23 -24 40 -46 82 -114 149 -194 158 -191 28 9 30 36 7
128 -21 89 -107 290 -129 304 -21 12 -11 34 41 91 55 60 214 184 235 184 28 0
10 18 -34 35 -27 10 -50 21 -53 25 -3 4 -23 1 -44 -6z m-449 -196 c-3 -8 -6
-5 -6 6 -1 11 2 17 5 13 3 -3 4 -12 1 -19z"/>
<path d="M2043 2673 c-58 -11 -103 -94 -88 -162 13 -62 99 -93 153 -55 20 14
22 14 22 0 0 -11 10 -16 33 -16 l33 0 12 103 c7 56 12 108 12 115 0 15 -57 16
-62 1 -2 -6 -14 -5 -33 5 -30 16 -41 17 -82 9z m85 -65 c7 -7 12 -29 12 -49 0
-61 -59 -90 -100 -49 -41 41 -11 110 48 110 15 0 33 -5 40 -12z"/>
<path d="M2430 2668 c-14 -5 -35 -19 -47 -30 l-23 -21 0 27 c0 24 -3 27 -27
24 -27 -3 -28 -6 -40 -88 -19 -139 -19 -142 20 -138 26 2 33 8 35 28 7 70 16
94 39 116 14 13 34 24 43 24 12 0 19 10 23 33 2 17 4 33 3 33 0 1 -12 -3 -26
-8z"/>
<path d="M2583 2670 c-56 -13 -93 -60 -93 -119 0 -72 43 -111 122 -111 56 0
68 9 57 39 -7 19 -14 22 -34 17 -31 -8 -76 12 -54 24 8 4 47 15 87 25 39 9 72
19 72 21 0 3 -6 20 -14 39 -23 54 -80 80 -143 65z m75 -71 c2 -12 -9 -19 -42
-28 -25 -6 -47 -11 -50 -11 -11 0 -6 36 6 48 18 18 82 11 86 -9z"/>
<path d="M2873 2670 c-56 -13 -93 -60 -93 -119 0 -72 43 -111 122 -111 56 0
68 9 57 39 -7 19 -14 22 -34 17 -31 -8 -76 12 -54 24 8 4 47 15 87 25 39 9 72
19 72 21 0 3 -6 20 -14 39 -23 54 -80 80 -143 65z m75 -71 c2 -12 -9 -19 -42
-28 -25 -6 -47 -11 -50 -11 -11 0 -6 36 6 48 18 18 82 11 86 -9z"/>
<path d="M3225 2668 c-11 -6 -30 -20 -42 -31 l-23 -20 0 26 c0 23 -4 27 -29
27 -32 0 -34 -6 -46 -125 -3 -33 -8 -70 -11 -82 -4 -20 0 -23 30 -23 35 0 35
0 42 57 5 44 14 64 35 85 15 15 34 28 43 28 9 0 18 11 22 25 9 35 2 46 -21 33z"/>
</g>
</svg>
